<svg xmlns="http://www.w3.org/2000/svg" width="16" height="11" fill="none" viewBox="0 0 16 11">
  <g clip-path="url(#a)">
    <path fill="#C4C4C4" d="m2.225 3.443.8-2.21.154-.424c.195-.524.578-.805 1.139-.806C6.772 0 9.227 0 11.682.003c.56 0 .945.281 1.137.808.303.83.602 1.66.903 2.49.014.037.03.074.053.136.03-.091.05-.16.072-.228.052-.162.153-.242.321-.243.474-.003.949-.003 1.423 0 .166 0 .268.085.32.245.107.32.123.638.01.963-.073.212-.16.29-.38.291h-1.403c.036.042.047.065.065.073.349.155.48.435.478.802-.004.766-.001 1.532-.001 2.298v2.408c0 .389-.124.512-.514.512h-1.532c-.365 0-.495-.13-.495-.5V8.574c0-.04-.006-.08-.009-.127H3.86v.928c0 .245.002.49-.001.735-.005.31-.142.447-.45.448-.548.003-1.095.003-1.642 0-.31-.002-.447-.139-.447-.451-.002-1.6-.001-3.2-.001-4.8 0-.349.138-.613.467-.76.02-.01.036-.03.083-.07-.082-.005-.13-.01-.178-.01H.471c-.233 0-.32-.075-.395-.295a1.457 1.457 0 0 1 .012-.963c.053-.158.156-.241.323-.242.475-.003.95-.003 1.423 0 .167 0 .266.081.319.246l.073.231ZM12.73 4.485c-.013-.047-.018-.072-.027-.095-.354-.981-.71-1.962-1.06-2.945-.038-.107-.101-.11-.189-.11-2.303.002-4.606.003-6.909-.001-.112 0-.163.034-.2.14-.34.953-.686 1.904-1.03 2.857-.017.047-.028.095-.044.154h9.46ZM3.842 5.53h-.766a.597.597 0 0 0-.58.546.573.573 0 0 0 .494.618c.153.023.311.017.467.018.365.003.73.005 1.095 0 .38-.005.637-.254.634-.603-.003-.339-.265-.577-.64-.58h-.703Zm8.32 0c-.246 0-.49-.003-.736 0-.329.003-.59.23-.612.527-.025.34.187.603.536.646.134.017.27.01.406.01.375 0 .75.005 1.126-.002.37-.007.627-.26.623-.6-.004-.337-.27-.58-.64-.582h-.703Z"/>
  </g>
  <defs>
    <clipPath id="a">
      <path fill="#fff" d="M0 0h16v10.56H0z"/>
    </clipPath>
  </defs>
</svg>