<svg
    xmlns="http://www.w3.org/2000/svg"
    width="18"
    height="18"
    fill="none"
    viewBox="0 0 18 18"
>
    <path
        fill="#C4C4C4"
        d="M16.418 2.145H5.801c-.873 0-1.582.71-1.582 1.582 0 .872.71 1.582 1.582 1.582h10.617c.872 0 1.582-.71 1.582-1.582 0-.873-.71-1.582-1.582-1.582Zm0 5.273H5.801c-.873 0-1.582.71-1.582 1.582 0 .873.71 1.582 1.582 1.582h10.617C17.29 10.582 18 9.872 18 9c0-.872-.71-1.582-1.582-1.582Zm0 5.273H5.801c-.873 0-1.582.71-1.582 1.582 0 .873.71 1.582 1.582 1.582h10.617c.872 0 1.582-.709 1.582-1.582 0-.872-.71-1.582-1.582-1.582ZM1.582 2.145C.709 2.145 0 2.855 0 3.727c0 .872.71 1.582 1.582 1.582.872 0 1.582-.71 1.582-1.582 0-.873-.71-1.582-1.582-1.582Zm0 5.273C.709 7.418 0 8.128 0 9c0 .873.71 1.582 1.582 1.582.872 0 1.582-.71 1.582-1.582 0-.872-.71-1.582-1.582-1.582Zm0 5.273c-.873 0-1.582.71-1.582 1.582 0 .873.71 1.582 1.582 1.582.872 0 1.582-.709 1.582-1.582 0-.872-.71-1.582-1.582-1.582Z"
    />
</svg>