<svg
    xmlns="http://www.w3.org/2000/svg"
    width="19"
    height="19"
    fill="none"
    viewBox="0 0 19 19"
>
    <path
        fill="#C4C4C4"
        d="M12.469 1.188h-1.29A1.783 1.783 0 0 0 9.5 0c-.774 0-1.434.496-1.68 1.188H6.53a.594.594 0 0 0-.593.593v2.375c0 .328.266.594.593.594h5.938a.594.594 0 0 0 .594-.594V1.781a.594.594 0 0 0-.594-.593Z"
    />
    <path
        fill="#C4C4C4"
        d="M15.438 2.375H14.25v1.781c0 .982-.8 1.782-1.781 1.782H6.53c-.982 0-1.781-.8-1.781-1.782V2.375H3.562a1.19 1.19 0 0 0-1.187 1.188v14.25c0 .666.521 1.187 1.188 1.187h11.874c.667 0 1.188-.521 1.188-1.188V3.563c0-.666-.521-1.187-1.188-1.187ZM9.326 12.889l-2.375 2.375a.596.596 0 0 1-.841 0l-1.188-1.187a.594.594 0 0 1 .84-.84l.768.767 1.955-1.954a.594.594 0 0 1 .84.84Zm0-4.75-2.375 2.375a.596.596 0 0 1-.841 0L4.923 9.327a.594.594 0 0 1 .84-.84l.768.767L8.486 7.3a.594.594 0 0 1 .84.84Zm4.33 6.111H11.28a.594.594 0 0 1 0-1.188h2.375a.594.594 0 0 1 0 1.188Zm0-4.75H11.28a.594.594 0 0 1 0-1.188h2.375a.594.594 0 0 1 0 1.188Z"
    />
</svg>