<svg
    xmlns="http://www.w3.org/2000/svg"
    width="15"
    height="15"
    fill="none"
    viewBox="0 0 17 17"
>
    <path
        fill="#C4C4C4"
        d="M.944 9.444h5.667a.945.945 0 0 0 .945-.944V.944A.945.945 0 0 0 6.61 0H.944A.944.944 0 0 0 0 .944V8.5a.944.944 0 0 0 .944.944ZM0 16.056A.945.945 0 0 0 .944 17h5.667a.944.944 0 0 0 .945-.944v-3.778a.944.944 0 0 0-.945-.945H.944a.945.945 0 0 0-.944.945v3.778Zm9.444 0a.945.945 0 0 0 .945.944h5.667a.945.945 0 0 0 .944-.944V9.444a.944.944 0 0 0-.944-.944h-5.667a.945.945 0 0 0-.945.944v6.612Zm.945-9.445h5.667A.945.945 0 0 0 17 5.667V.944A.945.945 0 0 0 16.056 0h-5.667a.944.944 0 0 0-.945.944v4.723a.945.945 0 0 0 .945.944Z"
    />
</svg>