<svg
    xmlns="http://www.w3.org/2000/svg"
    width="22"
    height="22"
    fill="none"
    viewBox="0 0 22 22"
>
    <path
        fill="#C4C4C4"
        d="M13.778 3.459H1.835a.622.622 0 0 0-.628.628v7.543c0 .346.276.629.628.629h11.943a.63.63 0 0 0 .629-.629V4.087a.626.626 0 0 0-.629-.628ZM1.2 15.402a.63.63 0 0 0 .63.628h.678a3.166 3.166 0 0 1 2.69-2.514H1.835c-.226 0-.433-.038-.634-.113V15.4Z"
    />
    <path
        fill="#C4C4C4"
        d="M19.391 16.03h.78a.63.63 0 0 0 .628-.628V9.895c0-.987-2.407-3.293-3.727-3.293h-1.408v5.028a1.891 1.891 0 0 1-1.886 1.886H6.015a3.167 3.167 0 0 1 2.69 2.514h4.489a3.169 3.169 0 0 1 3.099-2.546c1.527 0 2.81 1.1 3.098 2.546Zm-2.696-7.882c3.218-.157 3.086 3.168 3.086 3.168h-3.086V8.148Z"
    />
    <path
        fill="#C4C4C4"
        d="M16.29 18.541a1.898 1.898 0 1 0 0-3.797 1.898 1.898 0 0 0 0 3.797Zm-10.686 0a1.898 1.898 0 1 0 0-3.797 1.898 1.898 0 0 0 0 3.797Z"
    />
</svg>