<svg
    xmlns="http://www.w3.org/2000/svg"
    width="17"
    height="17"
    fill="none"
    viewBox="0 0 17 17"
>
    <g clip-path="url(#a)">
        <path
            fill="#C4C4C4"
            fill-rule="evenodd"
            d="M13.422 0h-2.69C9.91 0 9.238.67 9.238 1.494v.896h-.764a.498.498 0 0 0 0 .996h.775a2.84 2.84 0 0 0 5.667-.249V1.494c0-.823-.67-1.494-1.494-1.494Zm-2.506 7.223a2.86 2.86 0 0 0-.948.693L7.29 10.658H3.553c-.823 0-1.494.671-1.494 1.494s.671 1.494 1.494 1.494h4.183c.46 0 .914-.115 1.256-.46l.445-.447v3.763a.51.51 0 0 0 .4.498h4.582a.498.498 0 0 0 .497-.498v-6.69c0-2.046-2.125-3.436-4-2.59Z"
            clip-rule="evenodd"
        />
        <path
            fill="#C4C4C4"
            fill-rule="evenodd"
            d="M3.427 9.662h3.587a.498.498 0 0 0 .498-.498V5.61a.498.498 0 0 0-.498-.498H5.719v.856a.498.498 0 0 1-.996 0v-.856H3.427a.498.498 0 0 0-.498.498v3.553c0 .275.224.498.498.498Z"
            clip-rule="evenodd"
        />
    </g>
    <defs>
        <clipPath id="a">
            <path fill="#fff" d="M0 0h17v17H0z" />
        </clipPath>
    </defs>
</svg>