<svg
    xmlns="http://www.w3.org/2000/svg"
    width="18"
    height="18"
    fill="none"
    viewBox="0 0 18 18"
>
    <g clip-path="url(#a)">
        <path
            fill="#C4C4C4"
            fill-rule="evenodd"
            d="m7.708 2.53 1.222.622V0H6.012v3.152l1.22-.62a.525.525 0 0 1 .476-.001Z"
            clip-rule="evenodd"
        />
        <path
            fill="#C4C4C4"
            fill-rule="evenodd"
            d="M14.941 6.372V.527A.527.527 0 0 0 14.414 0h-4.43v4.01c0 .38-.404.671-.8.452L7.472 3.59l-1.75.889a.527.527 0 0 1-.763-.47L4.957 0H.527A.527.527 0 0 0 0 .527v13.887c0 .291.236.527.527.527h5.845a6.554 6.554 0 0 1 .018-4.983c1.384-3.341 5.2-4.946 8.551-3.586Z"
            clip-rule="evenodd"
        />
        <path
            fill="#C4C4C4"
            fill-rule="evenodd"
            d="M16.38 8.563c-1-1-2.382-1.62-3.908-1.62a5.51 5.51 0 0 0-3.91 1.62 5.51 5.51 0 0 0-1.619 3.909c0 1.526.62 2.908 1.62 3.909 1 1 2.382 1.619 3.909 1.619a5.511 5.511 0 0 0 3.909-1.62c1-1 1.619-2.382 1.619-3.908a5.511 5.511 0 0 0-1.62-3.91Zm-1.685 5.64c-.37.369-.88.598-1.441.598h-2.461a.527.527 0 1 1 0-1.055h2.46a.987.987 0 0 0 .985-.984.98.98 0 0 0-.289-.73.981.981 0 0 0-.695-.29h-1.47l.314.313a.526.526 0 1 1-.741.746l-1.212-1.21a.526.526 0 0 1-.002-.743l1.21-1.212a.526.526 0 0 1 .745.741l-.31.31h1.466c1.124 0 2.039.916 2.039 2.04a2.03 2.03 0 0 1-.598 1.476Z"
            clip-rule="evenodd"
        />
    </g>
    <defs>
        <clipPath id="a">
            <path fill="#fff" d="M0 0h18v18H0z" />
        </clipPath>
    </defs>
</svg>