<svg id="Layer_1" enable-background="new 0 0 53 53" viewBox="0 0 53 53" xmlns="http://www.w3.org/2000/svg"><g><g><path d="m16.1590176 33.5285683c0 .8644981-.3112431 1.4753761-.806881 1.7635422l-3.2505293 1.8903923c.4956379-.288166.806881-.8991127.806881-1.7751541.0115376-1.7404671-1.2218246-3.872942-2.7433538-4.7489815-.7607288-.4380188-1.4639091-.4841003-1.959548-.1959324l3.2505293-1.8788528c.4956388-.2997055 1.1872816-.2535534 1.959549.1844654 1.5215281.875967 2.7433528 3.0084438 2.7433528 4.7605209z" fill="#21201f"/><path d="m37.2578697 45.5201721c0 .864502-.3112411 1.4753799-.806881 1.763546l-3.2505264 1.8903885c.495636-.288166.806881-.8991127.806881-1.7751503.0115356-1.7404671-1.2218246-3.8729439-2.7433548-4.7489853-.7607288-.4380188-1.4639091-.4841003-1.959549-.1959305l3.2505302-1.8788528c.4956398-.2997055 1.1872826-.2535553 1.959549.1844635 1.5215302.8759689 2.743351 3.0084457 2.743351 4.7605209z" fill="#21201f"/><path d="m24.6651554 29.2750454 13.610323-7.9094563-.0372849 13.1521187-13.6103248 7.9094544z" fill="#c3a12e"/><path d="m36.4786682 46.5414581 13.6103211-7.9094581.4110107.237297-13.610321 7.9094582z" fill="#383736"/><path d="m36.889679 46.7787552 13.610321-7.9094582-.3551483 1.8368264-13.6103211 7.9094543z" fill="#434240"/><path d="m24.6782589 24.3245029-.0103703 4.9525967-.0103721 3.8232651v.2486572l-.0103073 2.4970741v.5180588l-.0103722 1.1500702-.0103702 4.9111748-12.6716652-7.3149681-5.7401166-3.3155804-3.714685-2.1379929.0518563-18.11133z" fill="#d6d4d2"/><path d="m24.6363373 37.7511711-.0098705 4.6742287-22.1264668-12.7685414.0099342-4.6846599z" fill="#c4c2c0"/><path d="m24.6791916 24.3242989 13.610321-7.9094563-.0140342 4.9507465-13.610323 7.9094563z" fill="#c4c2c0"/><path d="m38.2942886 16.4128361-13.6142673 7.9067821-22.1245337-12.7738161 13.60353-7.9067826z" fill="#e9e8e6"/><path d="m29.5284405 32.0828629 13.6103229-7.9094544 3.4440575 7.2941303-13.6103249 7.9094563z" fill="#dd4a4a"/><path d="m45.8874359 31.2509918-2.9848976-6.3202114-.3327675.1933861 2.8541222 6.0434132z" fill="#cc4848"/><path d="m45.423893 31.1675797-12.3462982 7.1749572.1307144.2768593 12.6791267-7.3684044z" fill="#f25a5a"/><path d="m45.421299 31.1628361-4.6728859 2.7249889-1.1915589.6838074-1.5955925.9325294-4.1962547 2.4348412-.6838722.4041023-2.859623-6.0405693 5.0147629-2.9114799 4.1858788-2.4348431 1.5956573-.9325295 1.191494-.6941795.3626785-.2072353z" fill="#b5e5f4"/><path d="m24.6651554 29.2750454 13.610323-7.9094563 4.863285 2.8078194-13.6103229 7.9094544z" fill="#f25a5a"/><path d="m50.0988197 34.8209648-13.6103935 7.9165192-3.505703-3.3568306 13.5989266-7.9163819z" fill="#f25a5a"/><path d="m36.8820076 46.7885513-.3523064 1.8442498-.9843216-.5076867-.0310516-.0206794-.2486572-.1243286-.2383499-.1243897-5.5017662-2.8596268-.331564-.1761856-.5491085-.2900772-1.1708145-.6113357-2.8493157-1.4816361.0103722-4.9111748.0103703-1.150074v-.5180549l.0206794-6.5689965 4.8593808 2.8078919 3.4502792 7.2942276 3.3881187 3.2223015.1243287.1243286v1.626709l-.0103722 2.1862488z" fill="#cc4848"/><g><path d="m35.049778 47.409111c0 .1554413-.0103683.3005142-.0207405.4351501l-5.5017681-2.859623-.3315639-.1761856-.5491085-.290081-1.1708145-.6113358c.1139584-1.5852242 1.1397018-2.67313 2.5488663-2.67313.569849 0 1.1604424.1761208 1.761343.5180588 1.8339461 1.0567933 3.2637862 3.5434952 3.2637862 5.6571465z" fill="#c44141"/></g><path d="m31.2651768 42.6515999c1.5160313.8752823 2.7483807 3.0097885 2.7434406 4.7518463-.0049629 1.750473-1.2453651 2.4573631-2.7613964 1.5820808-1.5233994-.8795319-2.755743-3.0140648-2.7507801-4.7645378.0049381-1.7420578 1.2453384-2.448925 2.7687359-1.5693893z" fill="#434240"/><g><path d="m31.2530289 43.4460754c1.1791534.6807861 2.1277771 2.3187599 2.1239662 3.6640625-.0006599 1.364193-.9522285 1.9064636-2.1378059 1.2182808-1.1727905-.6771088-2.114954-2.3201027-2.111124-3.671402.0037993-1.3402481.955368-1.8825187 2.1249637-1.2109413zm-.3954125.2216492c-.5387955-.1451111-.9210911-.0191574-1.1918621.3924828.316988.2678375.6147499.5245743.9189625.7702751.0150242.0120544.0294552.022007.0432701.0299797.1069183.0617294.1763554.0036469.1881294-.1397934.006794-.132534.0071907-.2724495.0107822-.4068222.0102177-.2080193.0204469-.4197044.0307179-.646122m.8333931 1.517498c.0098209.1995277.0743961.3317757.2089691.4094734.031847.0183868.0676079.0337143.1074867.0461464.0833664.0297012.1667404.0556984.2469101.0798683.1924057.0594406.3848228.1152115.590065.1747131-.2643623-.7169113-.6478882-1.2887039-1.1761532-1.7522812l-.0161057.0238914c.0150739.3406374.026951.6794168.038828 1.0181886m.8456497 2.8559532c.311924-.2108307.4701881-.5620308.4909477-1.092186-.2727013-.0394287-.5293159-.0916977-.7763939-.1126404-.1058884-.0095024-.1478806.0842705-.0841675.2538223.1178704.3114625.2421609.622944.3696137.9510041m-2.2601738-2.0388298c.0612793-.1047668.0199871-.2576866-.1112022-.3998146-.2175789-.2362595-.438385-.4670067-.6815796-.7254219.0081406.524704.1414909 1.0368805.4351921 1.5937004.077301-.0955238.1449451-.1818619.2125912-.2681999.048336-.0679817.1030598-.1249008.1449985-.200264m.9777356 1.9325714c.2053528.1185608.4092846.1937447.617712.2277412-.165987-.3207932-.3159637-.6286736-.4884434-.9237213-.0317535-.0550079-.1072006-.1222649-.1666241-.1565628-.0302277-.0174522-.0562973-.0263863-.0703812-.0208397-.1992321.084137-.3793125.2088127-.5786457.3260841.2356873.2362252.4618836.4176866.6863824.5472985m-.0034237-2.5723533c-.2467327-.1424484-.4557018-.0196762-.4565067.2638283-.0008144.2871933.2035847.644928.4535217.7892265.001976.0011711.0039063.0023079.0058746.0034447.2473011.1427803.453022.0305901.4570084-.2525139.0071831-.2850952-.2068005-.6578903-.4544506-.800869-.0018158-.001049-.0036316-.0020981-.0054474-.0031166m.0046653-.5136299c-.0705051-.0370064-.1283703-.0040436-.1285896.0732803-.0002308.0810051.0572605.1805916.1277542.2212906.0704956.040699.1251469.0095444.1285801-.0696068.0002308-.0810051-.057249-.1842651-.1277447-.2249641m-.3480281 1.6246414c.0002232-.0789566-.0574303-.180809-.122673-.2184792-.0016918-.0009766-.0033836-.0019112-.0050831-.0027885-.0704956-.0407028-.1283607-.0077362-.1285801.0695839-.0002289.0810051.0572605.180584.1277561.221283.0672893.0388488.1251449.0095558.1285801-.0695992m1.1206226-.1680527c.0704842.0406952.1283493.0113983.1285782-.0696068.0033417-.0771599-.0542336-.1789665-.1224403-.2183456-.00177-.0010223-.00354-.0020065-.0053139-.0029259-.0672989-.0388565-.125164-.0058899-.1253834.071434-.0002308.0810013.0572605.1805878.1245594.2194443m-1.5797386-.9120636c.0704956.0407028.1251469.0095482.1285801-.0696068.0002232-.0789566-.0543938-.1790581-.1224499-.2183495-.0017624-.0010185-.0035248-.0019951-.0053062-.0029221-.0672894-.0388489-.1251564-.0058823-.1253757.0714378-.000229.0810053.0540561.1787416.1245517.2194406m1.3242817 1.5796204c.0002232-.0789566-.0543938-.1790581-.1224499-.2183495-.0017624-.0010185-.0035248-.0019951-.0052967-.0029144-.0672989-.0388565-.1251659-.0058899-.1253853.0714302-.0002289.0810051.0540562.1787338.1245613.2194366.0704861.0406952.1251373.009552.1285706-.0696029" fill="#fff"/></g><path d="m32.4698639 39.4517555-7.024889-4.4760246-.0828438-4.6728878-.2590294-.1553803.0828438 4.9111767 7.4600391 4.7557297z" fill="#f25a5a"/><path d="m32.4698639 39.4517555-4.6210957-2.9425926-.3626136-.2279167-.4870072-.3108215-1.2744007-.818573-.2797718-.1761208-.0828438-4.6728878 2.3623085 1.3573074 1.3055153.7564068.0829067.0414238.2590294.5284271.2175427.4662629z" fill="#b5e5f4"/><path d="m36.4894676 42.7319984 13.6103211-7.9094581-.0107994 3.8094597-13.6103211 7.9094581z" fill="#dd4a4a"/><path d="m36.4786682 46.5414581v2.0450859l.0558624.0290337.3551484-1.8368225z" fill="#3f434f"/><g><path d="m39.2772903 41.822319c.0932121.5568314.3507729.9135094.7362175 1.1261635l-1.9088249 1.1020584c-.1036835.059864-.1892433.0390511-.1895218-.0590363l-.003418-1.205307c-.0002785-.0981102.0848656-.2244759.188549-.2843399z" fill="#ffd651"/></g><g><path d="m46.3551598 39.0344391.0004768.1681862-6.1289215 3.5385322-.0004768-.1681862z" fill="#c44141"/></g><g><path d="m46.5067482 38.6310616.0004768.1681861-6.4399681 3.7181168-.0004768-.1681824z" fill="#c44141"/></g><g><path d="m46.8159904 37.8278084.0004769.1681824-7.0559082 4.0737304-.0004769-.1681824z" fill="#c44141"/></g><g><path d="m48.4676323 36.5162735c.1098022-.0633965.1893044-.0320892.1895828.0660248l.003418 1.2053032c.0002785.0980873-.0788078.2139587-.1886101.2773552l-1.908783 1.1020355c.3829422-.6562805.6376801-1.3087349.7335129-1.9747124z" fill="#ffd651"/></g><g><path d="m48.5258217 38.3359451c.1097641-.0633736.195385-.0355988.1956635.0625153l.0010529.3713913c.0002785.0981102-.0848885.2315102-.1946526.2948837l-1.4758072.8520584c-.1097641.0633698-.1954041.0285873-.1956825-.0695229l-.0010529-.3713951c-.0002785-.0981102.0849075-.2245026.1946716-.2878723z" fill="#e9e8e6"/></g><g><path d="m49.6507492 35.8331985c.1036835-.0598602.1892662-.0320625.1895447.0660477l.003418 1.205307c.0002785.0980873-.0848885.2174683-.1885719.2773285l-.6647415.3837891c-.1036835.059864-.1892433.0390511-.1895218-.0590363l-.003418-1.205307c-.0002785-.0981102.0848656-.2244797.188549-.2843399z" fill="#e9e8e6"/></g><g><path d="m39.7508163 43.3542519c.1097641-.0633736.2014656-.0391083.2017441.0590057l.0010529.3713913c.0002747.0981102-.0909691.2350235-.2007332.2983932l-1.4758072.8520584c-.1098022.0633965-.1954041.0285873-.1956825-.0695229l-.0010529-.3713951c-.0002785-.0981102.0848656-.2244759.1946716-.2878723z" fill="#e9e8e6"/></g><g><path d="m48.8797379 40.4346008c.0908318-.0524406.1616898-.0294571.1619186.0517349l.0008698.3073349c.0002327.081192-.0702438.1915817-.1610756.2440262l-1.2212715.705101c-.0908318.0524406-.161705.0236549-.1619339-.0575333l-.0008698-.3073387c-.0002327-.0811882.0702629-.1857796.1610947-.238224z" fill="#f9bb4a"/></g><g><path d="m39.6242485 45.7146111c.0908318-.0524406.1667175-.0323601.1669464.0488281l.0008736.3073387c.0002289.081192-.0752792.1944885-.166111.3105774l-1.2212715.705101c-.0908661-.0111885-.1617012-.0399933-.1619339-.1211815l-.0008698-.3073387c-.0002289-.0811882.0702286-.1857605.1610947-.238224z" fill="#f9bb4a"/></g><g><path d="m37.5880356 42.7976112c.0975647-.0563278.1892662-.0320663.1895447.0660477l.003418 1.2053032c.0002785.0980911-.0910072.2210045-.1885719.2773323l-.6647415.3837891c-.1097641.0633698-.1892433.0390472-.1895218-.0590401l-.003418-1.2053032c-.0002785-.098114.0787888-.2209702.188549-.2843399z" fill="#e9e8e6"/></g><g><path d="m46.6583214 38.2347183.0004768.1681595-6.738781 3.8906365-.0004768-.1681595z" fill="#c44141"/></g><g><path d="m46.961483 37.4349709.0004768.1681861-7.3608398 4.2497826-.0004768-.1681824z" fill="#c44141"/></g><path d="m3.3244174 27.6503735v1.2413921l1.9846537 1.1458111v-1.2413388z" fill="#434240"/><path d="m45.1933212 42.2596474v1.0257454l-3.3570022 1.9479026v-1.0361175z" fill="#d4dae8"/><g fill="#fff" opacity=".3"><path d="m39.4221535 26.956213-1.4608918 8.5479488-4.1962547 2.4348412 1.4712677-8.5479469z"/><path d="m42.2093048 25.329504-1.4608917 8.558321-1.1915589.6838074 1.4609566-8.5479489z"/></g><g fill="#fff" opacity=".3"><path d="m29.0299549 32.4165573-2.0308075 3.5538674-1.2744007-.818573 1.9996929-3.4917012z"/><path d="m29.5894337 33.4526711-1.7406655 3.0564918-.3626136-.2279167 1.8857364-3.294838z"/></g><path d="m6.8985362 32.1886063.6527524.3419189.5491409.2901115.3315563.1761398c.3108349.2175865.6320305.4248085.9428644.6216698 1.4920053.9843102 2.9943724 1.8650055 4.5278225 2.6213722.0103607-.134697.0518055-.6631165.0518055-.818531 0-2.1136742-1.4298382-4.6003513-3.2637615-5.6571884-.6009464-.3419189-1.1915321-.5180588-1.7613955-.5180588-1.3987551 0-2.424509 1.0775604-2.5488424 2.6420937z" fill="#b2b0af"/><path d="m12.9080095 35.410881c0 1.7510376-1.24335 2.4556503-2.7561007 1.5852852-1.5230588-.8806724-2.7560376-3.0150642-2.7560376-4.7661018.0103712-1.7407284 1.243351-2.4452782 2.7664089-1.5749149 1.5231218.8806724 2.7561006 3.0150661 2.7457294 4.7557315z" fill="#434240"/><g><path d="m10.1541758 31.4544716c1.1791544.6807861 2.1277781 2.3187599 2.1239643 3.6640625-.000658 1.364193-.9522266 1.9064636-2.1378059 1.2182808-1.1727896-.6771126-2.114953-2.3201027-2.1111221-3.671402.0037993-1.34025.9553679-1.8825207 2.1249637-1.2109413zm-.3954134.2216473c-.5387955-.1451111-.9210911-.0191555-1.1918612.3924847.316987.2678375.614749.5245743.9189615.7702751.0150232.0120544.0294561.0220032.0432701.0299797.1069174.0617294.1763554.0036469.1881294-.1397934.0067949-.132534.0071917-.2724495.0107822-.406826.0102187-.2080155.0204469-.4197026.030718-.6461201m.833394 1.5174999c.0098209.1995277.0743952.3317757.2089672.4094696.031848.0183868.0676088.0337181.1074877.0461502.0833645.0297012.1667395.0556984.2469101.0798645.1924057.0594444.3848219.1152153.590065.1747131-.2643614-.7169075-.6478882-1.2887001-1.1761522-1.7522812l-.0161066.0238953c.0150728.3406372.0269508.6794167.0388288 1.0181885m.8456478 2.8559532c.3119249-.2108307.4701891-.5620346.4909496-1.0921898-.2727013-.0394249-.5293179-.0916939-.7763948-.1126404-.1058884-.0095024-.1478786.0842743-.0841684.2538261.1178713.3114625.2421608.6229439.3696136.9510041m-2.2601728-2.0388298c.0612793-.1047668.0199881-.2576866-.1112013-.3998146-.2175808-.2362633-.438386-.4670105-.6815805-.7254257.0081415.524704.1414909 1.0368805.4351921 1.5937042.0773001-.0955238.1449461-.1818619.2125912-.2681999.0483369-.0679818.1030607-.1249009.1449985-.200264m.9777355 1.9325714c.2053528.1185608.4092855.1937447.617713.2277412-.165988-.3207932-.3159647-.6286774-.4884443-.9237251-.0317526-.0550079-.1072006-.122261-.1666231-.156559-.0302277-.0174522-.0562983-.0263863-.0703821-.0208435-.1992311.084137-.3793116.2088165-.5786457.326088.2356872.2362251.4618844.4176826.6863822.5472984m-.0034237-2.5723534c-.2467327-.1424522-.4557018-.01968-.4565058.2638245-.0008144.2871971.2035837.644928.4535208.7892303.001976.0011711.0039072.0023079.0058737.0034409.247303.1427803.4530239.0305901.4570093-.2525101.0071831-.285099-.2068014-.6578903-.4544506-.8008728-.0018158-.0010452-.0036316-.0020942-.0054474-.0031128m.0046654-.5136299c-.0705051-.0370102-.1283703-.0040436-.1285896.0732803-.0002298.0810013.0572596.1805878.1277552.2212906.0704947.040699.1251459.0095444.1285801-.0696106.0002288-.0810012-.0572501-.1842613-.1277457-.2249603m-.3480292 1.6246414c.0002241-.0789604-.0574284-.1808128-.1226721-.2184792-.0016909-.0009766-.0033827-.0019112-.0050831-.0027924-.0704947-.040699-.1283607-.0077324-.1285801.0695877-.0002289.0810051.0572605.1805801.1277561.221283.0672904.038849.125146.0095559.1285792-.0695991m1.1206236-.1680526c.0704861.0406952.1283503.0113945.1285801-.0696068.0033388-.0771599-.0542336-.1789665-.1224413-.2183495-.001771-.0010223-.0035429-.0020027-.0053139-.0029221-.0672998-.0388565-.125165-.0058899-.1253843.0714302-.0002298.0810052.0572596.1805917.1245594.2194482m-1.5797386-.9120636c.0704956.040699.1251459.0095482.1285801-.0696068.0002241-.0789604-.0543938-.1790581-.1224499-.2183533-.0017624-.0010147-.0035248-.0019913-.0053053-.0029182-.0672913-.0388489-.1251564-.0058861-.1253757.0714378-.0002298.0810051.0540562.1787415.1245508.2194405m1.3242817 1.5796203c.0002241-.0789604-.0543938-.1790581-.1224499-.2183495-.0017624-.0010185-.0035248-.0019951-.0052967-.0029144-.0672998-.0388565-.125165-.0058899-.1253843.0714302-.0002298.0810051.0540562.17873.1245604.2194366.070486.0406953.1251363.0095521.1285705-.0696029" fill="#fff"/></g><path d="m26.7522125 36.4092865-.0010547.372467-1.5215111-.8784446.0010567-.3724671z" fill="#434240"/></g><path d="m34.0133629 33.4228249c-.3146858.100956-.5937157.273159-.8252754.5046463-.2256165.2256889-.3977814.5047188-.5046463.8194046-.0297165.1008873-.1662598.1008873-.2018814 0-.2018814-.6293755-.7005844-1.1222076-1.3239822-1.3240509-.1068649-.0355873-.1068649-.1721306 0-.2077904.3146534-.1008835.5937195-.2790298.8193359-.5046463s.4037247-.5046463.5046463-.819334c.0356216-.1009579.1721649-.1009579.2018814 0 .1068649.3146877.2790298.5937176.5046463.819334.2315598.2256165.5105896.4037628.8252754.5046463.1009254.0356598.1009254.172203 0 .2077904z" fill="#fff"/></g></svg>