<svg id="Capa_1" enable-background="new 0 0 512 512" height="512" viewBox="0 0 512 512" width="512" xmlns="http://www.w3.org/2000/svg"><path d="m443.26 71v313l-287.97 89v-409h111.96l32.03 10 32.03-10h104.95c3.87 0 7 3.13 7 7z" fill="#edba94"/><path d="m244.604 80c0-5.444-.435-10.788-1.271-16h-88.038v115.974c50.176-5.631 89.309-48.318 89.309-99.974z" fill="#e5a87f"/><path d="m155.294 64h20.604v320h-20.604z" fill="#e5a87f"/><path d="m321.392 144.867-19.194-8.805c-1.853-.85-3.985-.85-5.838 0l-19.194 8.805c-4.637 2.127-9.919-1.261-9.919-6.362v-74.505h64.063v74.505c.001 5.101-5.281 8.489-9.918 6.362z" fill="#fd6930"/><path d="m259.655 238.679-23.949-23.949c-2.734-2.734-7.166-2.734-9.899 0l-23.949 23.949c-4.41 4.41-1.287 11.95 4.95 11.95h.949c3.866 0 7 3.134 7 7v55.371c0 3.866 3.134 7 7 7h18c3.866 0 7-3.134 7-7v-55.371c0-3.866 3.134-7 7-7h.949c6.236 0 9.359-7.54 4.949-11.95z" fill="#f1f6f7"/><path d="m404.485 320.354h-50c-3.866 0-7-3.134-7-7v-18.709c0-3.866 3.134-7 7-7h50c3.866 0 7 3.134 7 7v18.709c0 3.866-3.134 7-7 7z" fill="#e5a87f"/><g><g><path d="m411.485 263.726h-64.001c-4.268 0-7.726-3.459-7.726-7.726s3.459-7.726 7.726-7.726h64.001c4.268 0 7.726 3.459 7.726 7.726.001 4.267-3.458 7.726-7.726 7.726z" fill="#e5a87f"/></g></g><path d="m354.74 371.62c-6.16-10.65-17.67-17.84-30.83-17.84h-45.8l-21.93-8.48c-12.81-4.95-26.27-7.46-40.01-7.46-24.73 0-45.02 4.59-60.88 10.47v124.69l287.97-89v-63.5z" fill="#e5a87f"/><path d="m123.485 384s30.69-31.158 92.687-31.158c11.832 0 23.563 2.188 34.6 6.454l24.544 9.486h48.592c11.361 0 20.57 9.21 20.57 20.57 0 0-.314 4.121-.897 6.027l.005.002 39.044-22.541 71.248-41.146c9.838-5.676 22.417-2.297 28.093 7.541 5.42 9.351 1.845 22.694-7.52 28.093l-130.238 101.793c-9.014 7.057-20.13 10.879-31.565 10.879h-189.163l-10-16.5v-60.851z" fill="#ffcebf"/><path d="m224.848 353.235c-2.88-.261-5.775-.393-8.676-.393-61.997 0-92.687 31.158-92.687 31.158l-10 18.649v61.851l10 15.5h20.604v-92.894c0-2.049.89-3.997 2.453-5.323 7.728-6.555 33.736-25.574 78.306-28.548z" fill="#ffb09e"/><path d="m336.336 393.118c-1.661 5.429-6.599 9.077-12.285 9.077h-93.293c-4.268 0-7.726 3.459-7.726 7.726s3.459 7.726 7.726 7.726h93.293c4.864 0 9.472-1.226 13.513-3.41-.001.004 120.481-72.47 137.038-82.429-6.177-3.638-14.074-3.952-20.725-.114l-71.248 41.146-39.044 22.541-.005-.002c.583-1.906.897-6.027.897-6.027 0-.563-.04-1.116-.084-1.668-3.555-.312-6.97 1.882-8.057 5.434z" fill="#ffb09e"/><circle cx="144" cy="80" fill="#ade194" r="80"/><path d="m84.604 80c0-40.692 30.381-74.288 69.698-79.343-3.373-.433-6.811-.657-10.302-.657-44.183 0-80 35.817-80 80s35.817 80 80 80c3.491 0 6.929-.224 10.302-.657-39.317-5.055-69.698-38.651-69.698-79.343z" fill="#7dce6f"/><g><g><path d="m128.495 119.726c-2.262 0-4.413-.991-5.882-2.717l-24.039-28.224c-2.767-3.249-2.376-8.125.872-10.892 3.251-2.768 8.126-2.376 10.892.873l17.95 21.075 41.662-52.428c2.656-3.341 7.515-3.898 10.856-1.242 3.341 2.654 3.897 7.515 1.242 10.856l-47.505 59.781c-1.438 1.808-3.609 2.879-5.918 2.919-.042-.001-.087-.001-.13-.001z" fill="#f1f6f7"/></g></g><path d="m91.485 512h25.144c3.866 0 7-3.134 7-7v-146c0-3.866-3.134-7-7-7h-35.144v128z" fill="#f1f6f7"/><path d="m34.485 336h50c3.866 0 7 3.134 7 7v169h-57c-3.866 0-7-3.134-7-7v-162c0-3.866 3.134-7 7-7z" fill="#9dc6fb"/><path d="m27.485 343v162c0 3.866 3.134 7 7 7h13.604v-176h-13.604c-3.866 0-7 3.134-7 7z" fill="#80b4fb"/><path d="m59.873 391.726c-4.267 0-7.726-3.459-7.726-7.726 0-4.267 3.459-7.726 7.726-7.726 4.267 0 7.726 3.459 7.726 7.726.001 4.267-3.458 7.726-7.726 7.726z" fill="#f1f6f7"/></svg>