<svg width="16" height="16" viewBox="0 0 16 16" fill="none" xmlns="http://www.w3.org/2000/svg">
<circle cx="8" cy="8" r="8" fill="#F2F2F2"/>
<path d="M5.00169 7.99216C5.00136 7.82555 5.05946 7.6641 5.16589 7.53581L8.73547 3.25759C8.85665 3.11197 9.03079 3.0204 9.21956 3.00302C9.40834 2.98563 9.5963 3.04386 9.7421 3.16489C9.88789 3.28592 9.97957 3.45984 9.99698 3.64839C10.0144 3.83693 9.95608 4.02466 9.83491 4.17027L6.63656 7.99216L9.72068 11.814C9.77998 11.887 9.82427 11.9709 9.85099 12.061C9.87771 12.1511 9.88635 12.2455 9.87639 12.339C9.86644 12.4324 9.8381 12.5229 9.793 12.6054C9.7479 12.6878 9.68693 12.7606 9.61359 12.8194C9.54018 12.8847 9.45407 12.9342 9.36063 12.9647C9.2672 12.9952 9.16847 13.0061 9.07061 12.9967C8.97276 12.9874 8.8779 12.9579 8.79198 12.9102C8.70605 12.8625 8.63092 12.7976 8.57127 12.7196L5.12306 8.44137C5.03345 8.3094 4.99072 8.15124 5.00169 7.99216V7.99216Z" fill="#3352F3"/>
</svg>
