<svg xmlns="http://www.w3.org/2000/svg" width="54" height="54" fill="none" viewBox="0 0 54 54">
  <path fill="#fff" d="M40.5 18.743a4.557 4.557 0 0 0-4.32-3.116h-2.363V31.5l11.374 1.125L40.5 18.743Z"/>
  <path fill="#DFEBF7" d="M38.891 20.599a2.25 2.25 0 0 0-2.16-1.552h-2.914V31.5l9 .9-3.926-11.8Z"/>
  <path fill="#2C3D60" d="M45.191 33.536h-.09L33.75 32.4a.855.855 0 0 1-.765-.855V15.626a.844.844 0 0 1 .844-.843h2.396a5.412 5.412 0 0 1 5.13 3.69L46 32.41a.878.878 0 0 1-.146.81.833.833 0 0 1-.664.316ZM34.672 30.78l9.293.923-4.23-12.69a3.701 3.701 0 0 0-3.51-2.532h-1.553v14.3Z"/>
  <path fill="#8396FF" d="m50.625 34.245-5.479-1.563L33.818 31.5V15.627h-5.693V48.6h21.6a3.375 3.375 0 0 0 3.375-3.375V37.53a3.432 3.432 0 0 0-2.475-3.285Z"/>
  <path fill="#8EB6FF" d="m47.25 33.312-2.104-.63L33.818 31.5V15.627h-5.693V45.19h19.339a2.25 2.25 0 0 0 2.25-2.25v-6.367a3.375 3.375 0 0 0-2.464-3.262Z"/>
  <path fill="#2C3D60" d="M49.736 49.5H28.125a.855.855 0 0 1-.855-.855V15.626a.856.856 0 0 1 .855-.843h5.625a.855.855 0 0 1 .855.844V30.78l10.598 1.058h.157l5.479 1.575A4.275 4.275 0 0 1 54 37.53v7.661a4.263 4.263 0 0 1-4.264 4.31Zm-20.745-1.755h20.745a2.552 2.552 0 0 0 2.554-2.553V37.53a2.565 2.565 0 0 0-1.845-2.464L45 33.526 33.75 32.4a.855.855 0 0 1-.765-.855V16.481h-3.994v31.264Z"/>
  <path fill="#2C3D60" d="M38.374 38.081h-4.557a.856.856 0 0 1 0-1.699h4.557a.855.855 0 0 1 0 1.7Z"/>
  <path fill="#8396FF" d="M3.105 37.226h25.02V48.6H3.105a2.25 2.25 0 0 1-2.25-2.25v-6.874a2.25 2.25 0 0 1 2.25-2.25Z"/>
  <path fill="#B5DAFF" d="M28.125 45.191H.855V39.51a2.25 2.25 0 0 1 2.25-2.25h25.02v7.931Z"/>
  <path fill="#8EB6FF" d="m28.136 45.191-26.448-.045 2.576-4.5 23.85-1.44.022 5.985Z"/>
  <path fill="#2C3D60" d="M28.125 49.5H3.127A3.138 3.138 0 0 1 0 46.327V39.51a3.128 3.128 0 0 1 3.127-3.128h24.998a.855.855 0 0 1 .855.844V48.6a.853.853 0 0 1-.855.9ZM3.127 38.08a1.418 1.418 0 0 0-1.417 1.43v6.817a1.406 1.406 0 0 0 1.417 1.418h24.154V38.08H3.127ZM42.919 1.71h-5.693a.855.855 0 0 1 0-1.71h5.693a.855.855 0 0 1 0 1.71Zm-10.238 0H12.217a.843.843 0 0 1-.843-.855.842.842 0 0 1 .843-.855h20.464a.855.855 0 0 1 0 1.71ZM29.25 6.255h-5.625a.878.878 0 0 1 0-1.755h5.625a.855.855 0 0 1 0 1.71v.045Zm-10.204 0H6.536a.878.878 0 0 1 0-1.755h12.51a.855.855 0 0 1 0 1.71v.045Z"/>
  <path fill="#BAC4D3" d="M12.217 53.145a4.545 4.545 0 1 0 0-9.09 4.545 4.545 0 0 0 0 9.09Z"/>
  <path fill="#DFEBF7" d="M13.927 48.6a1.71 1.71 0 1 1-3.42 0 1.71 1.71 0 0 1 3.42 0Z"/>
  <path fill="#2C3D60" d="M12.217 54a5.4 5.4 0 1 1 5.4-5.4 5.412 5.412 0 0 1-5.4 5.4Zm0-9.09a3.69 3.69 0 1 0 .023 7.38 3.69 3.69 0 0 0-.023-7.38Z"/>
  <path fill="#BAC4D3" d="M41.782 53.145a4.545 4.545 0 1 0 0-9.09 4.545 4.545 0 0 0 0 9.09Z"/>
  <path fill="#2C3D60" d="M41.782 54a5.4 5.4 0 1 1 0-10.8 5.4 5.4 0 0 1 0 10.8Zm0-9.09a3.69 3.69 0 1 0 3.69 3.69 3.701 3.701 0 0 0-3.69-3.69Z"/>
  <path fill="#DFEBF7" d="M43.481 48.6a1.71 1.71 0 1 1-3.42 0 1.71 1.71 0 0 1 3.42 0Z"/>
  <path fill="#E78251" d="M3.127 11.081h25.01v26.145H3.126V11.081Z"/>
  <path fill="#F4C08E" d="M23.591 32.681 3.127 34.954V11.08h22.737l-2.273 21.6Z"/>
  <path fill="#FEB166" d="M23.591 32.681 3.904 34.886 6.536 14.49l19.26-2.655-2.205 20.846Z"/>
  <path fill="#2C3D60" d="M28.125 38.081H3.128a.855.855 0 0 1-.878-.855V11.081a.855.855 0 0 1 .855-.855h25.02a.855.855 0 0 1 .855.855v26.145a.855.855 0 0 1-.855.855ZM3.983 36.382H27.28V11.936H3.983v24.446Z"/>
  <path fill="#fff" d="m20.182 20.182-4.556-2.272-4.545 2.272v-9.1h9.101v9.1Z"/>
  <path fill="#DFEBF7" d="m20.182 20.182-4.556-2.272-2.846 1.586.832-6.142 6.57-1.137v7.965Z"/>
  <path fill="#2C3D60" d="M20.182 21.026a.743.743 0 0 1-.382-.09l-4.174-2.081-4.162 2.081a.844.844 0 0 1-.833 0 .856.856 0 0 1-.405-.72v-9.135a.855.855 0 0 1 .855-.855h9.101a.844.844 0 0 1 .844.855v9.101a.845.845 0 0 1-.394.72.822.822 0 0 1-.45.124Zm-4.556-3.971a.743.743 0 0 1 .383.09l3.318 1.654v-6.863h-7.39V18.8l3.374-1.654a.72.72 0 0 1 .315-.09Zm-3.409 16.481h-4.5a.855.855 0 0 1 0-1.71h4.5a.855.855 0 0 1 0 1.71Zm2.273-3.408H7.672a.855.855 0 0 1 0-1.71h6.818a.855.855 0 0 1 0 1.71Z"/>
</svg>
