<svg height="512" viewBox="0 0 54 44" width="512" xmlns="http://www.w3.org/2000/svg"><g id="Слой_2" data-name="Слой 2"><g id="_1" data-name="1"><path d="m.76.76h36.38v36.38h-36.38z" fill="#f4c08e"/><path d="m37.14 37.14h-34.36l2.02-31.33 32.34-3.03z" fill="#feb166"/><circle cx="29.05" cy="29.05" fill="#e78251" r="16.17" transform="matrix(.23 -.973 .973 .23 -5.9 50.65)"/><path d="m37.14 37.89h-36.38a.75.75 0 0 1 -.76-.75v-36.38a.76.76 0 0 1 .76-.76h36.38a.75.75 0 0 1 .75.76v36.38a.74.74 0 0 1 -.75.75zm-35.62-1.51h34.86v-34.86h-34.86z" fill="#2c3d60"/><path d="m24 11.87-5.05-3.03-5.06 3.03v-11.11h10.11z" fill="#fff"/><path d="m24 11.87-5.05-3.03-3.96 2.38 1.72-6.53 7.29-.68z" fill="#dfebf7"/><path d="m24 12.63a.68.68 0 0 1 -.39-.11l-4.61-2.79-4.67 2.79a.75.75 0 0 1 -1.14-.65v-11.11a.76.76 0 0 1 .7-.76h10.11a.76.76 0 0 1 .76.76v11.11a.75.75 0 0 1 -.39.66.69.69 0 0 1 -.37.1zm-5-4.55a.79.79 0 0 1 .39.11l3.9 2.35v-9h-8.64v9l3.91-2.35a.77.77 0 0 1 .44-.11z" fill="#2c3d60"/><path d="m8.84 31.33h-4a.76.76 0 0 1 0-1.52h4a.76.76 0 0 1 0 1.52z" fill="#2c3d60"/><path d="m11.87 34.36h-7.07a.76.76 0 0 1 0-1.52h7.07a.76.76 0 0 1 0 1.52z" fill="#2c3d60"/><circle cx="31.07" cy="31.07" fill="#8eb6ff" r="16.17"/><path d="m38.47 16.71a16.16 16.16 0 0 1 -17.83 26.71 16.16 16.16 0 1 0 17.83-26.71z" fill="#8396ff"/><path d="m23.68 45.44a16.16 16.16 0 0 1 17.82-26.71 16.16 16.16 0 1 0 -17.82 26.71z" fill="#b5daff"/><g fill="#2c3d60"><path d="m31.07 48a16.93 16.93 0 1 1 16.93-16.93 16.94 16.94 0 0 1 -16.93 16.93zm0-32.34a15.41 15.41 0 1 0 15.41 15.41 15.44 15.44 0 0 0 -15.41-15.41z"/><path d="m31.07 41.94a10.84 10.84 0 0 1 -8.35-3.94.76.76 0 1 1 1.16-1 9.35 9.35 0 1 0 -2.15-6 9.11 9.11 0 0 0 .27 2.16.76.76 0 1 1 -1.48.33 10.87 10.87 0 1 1 10.59 8.45z"/><path d="m21.22 34.08a.75.75 0 0 1 -.74-.58.76.76 0 0 1 .57-.91l9.85-2.26a.77.77 0 0 1 .91.57.75.75 0 0 1 -.57.91l-9.85 2.26z"/><path d="m31.07 15.66a.76.76 0 0 1 -.75-.75v-4.05a.76.76 0 0 1 1.51 0v4.05a.76.76 0 0 1 -.76.75z"/><path d="m33.6 11.62h-5.05a.76.76 0 0 1 -.76-.76.75.75 0 0 1 .76-.75h5.05a.75.75 0 0 1 .76.75.76.76 0 0 1 -.76.76z"/><path d="m39.86 18.26a.78.78 0 0 1 -.41-.12.76.76 0 0 1 -.22-1.05l2-3a.76.76 0 0 1 1.27.83l-2 3a.77.77 0 0 1 -.64.34z"/><path d="m22.28 18.26a.74.74 0 0 1 -.63-.35l-2-3a.77.77 0 0 1 .23-1.05.76.76 0 0 1 1 .22l2 3a.76.76 0 0 1 -.22 1.05.79.79 0 0 1 -.38.13z"/><path d="m23 41.94a.76.76 0 0 1 -.76-.76v-4a.76.76 0 0 1 .76-.76h4a.76.76 0 0 1 .76.76.75.75 0 0 1 -.76.75h-3.25v3.29a.76.76 0 0 1 -.75.72z"/></g></g></g></svg>